<svg xmlns="http://www.w3.org/2000/svg" height="24" viewBox="0 -960 960 960" width="24"><path d="M482.013-187.271q-123.018 0-208.265-85.065-85.247-85.066-85.247-207.634 0-122.568 85.247-207.664 85.247-85.095 208.291-85.095 69.654 0 131.461 31.038 61.808 31.039 102.231 88.193v-119.231h55.96v235.728H535.963v-55.96h153.96q-31.34-57.649-86.798-90.729-55.459-33.079-121.047-33.079-98.924 0-168.27 69.156t-69.346 167.731q0 98.574 69.221 167.613 69.221 69.038 168.29 69.038 75.906 0 137.024-43.192 61.119-43.192 85.883-114.385h59.119q-26.423 95.307-104.688 154.422-78.266 59.115-177.298 59.115Z"/></svg>